<svg width="46" height="46" viewBox="0 0 46 46" fill="none" xmlns="http://www.w3.org/2000/svg">
<rect width="46" height="46" rx="4" fill="#EDECF6"/>
<path d="M27.577 19.5255L17.658 16.2185C17.358 16.1185 17.208 16.0685 17.104 16.1435C17 16.2185 17 16.3765 17 16.6935V23.9995L27.577 20.4735C28.165 20.2775 28.459 20.1795 28.459 19.9995C28.459 19.8195 28.165 19.7215 27.577 19.5255Z" fill="url(#paint0_linear_9111_40793)"/>
<path d="M17 23.9995V16.6935C17 16.3765 17 16.2185 17.104 16.1435C17.208 16.0685 17.358 16.1185 17.658 16.2185L27.577 19.5255C28.165 19.7215 28.459 19.8195 28.459 19.9995C28.459 20.1795 28.165 20.2775 27.577 20.4735L17 23.9995ZM17 23.9995V29.9995" stroke="url(#paint1_linear_9111_40793)" stroke-width="2" stroke-linecap="round"/>
<defs>
<linearGradient id="paint0_linear_9111_40793" x1="22.7295" y1="16.1074" x2="22.7295" y2="23.9995" gradientUnits="userSpaceOnUse">
<stop stop-color="#42389E"/>
<stop offset="1" stop-color="#0F1026"/>
</linearGradient>
<linearGradient id="paint1_linear_9111_40793" x1="22.7295" y1="16.1074" x2="22.7295" y2="29.9995" gradientUnits="userSpaceOnUse">
<stop stop-color="#42389E"/>
<stop offset="1" stop-color="#0F1026"/>
</linearGradient>
</defs>
</svg>
