<svg width="46" height="46" viewBox="0 0 46 46" fill="none" xmlns="http://www.w3.org/2000/svg">
<rect width="46" height="46" rx="4" fill="#EDECF6"/>
<path d="M21.5002 13C22.7512 13 23.9402 13.27 25.0092 13.756C24.4934 14.2134 24.1508 14.8346 24.0392 15.515C22.7534 14.9694 21.326 14.8525 19.9685 15.1816C18.6111 15.5108 17.3957 16.2685 16.5026 17.3424C15.6095 18.4164 15.086 19.7495 15.0099 21.1442C14.9337 22.539 15.3089 23.9211 16.0798 25.0859C16.8507 26.2508 17.9763 27.1363 19.2899 27.6112C20.6035 28.0862 22.0351 28.1254 23.3727 27.7231C24.7103 27.3207 25.8827 26.4981 26.7162 25.3772C27.5497 24.2564 27.9999 22.8968 28.0002 21.5L27.9952 21.231C28.5312 21.711 29.2342 21.996 29.9862 22C29.8868 23.7355 29.2551 25.3982 28.1772 26.762L31.8292 30.414C32.0114 30.6026 32.1122 30.8552 32.1099 31.1174C32.1076 31.3796 32.0025 31.6304 31.817 31.8158C31.6316 32.0012 31.3808 32.1064 31.1186 32.1087C30.8564 32.111 30.6038 32.0102 30.4152 31.828L26.7632 28.176C25.6987 29.0149 24.449 29.5871 23.1184 29.8449C21.7877 30.1026 20.4148 30.0384 19.114 29.6577C17.8132 29.2769 16.6223 28.5906 15.6407 27.656C14.6591 26.7214 13.9153 25.5656 13.4712 24.2851C13.0271 23.0045 12.8957 21.6363 13.0878 20.2947C13.28 18.953 13.7903 17.6767 14.576 16.5724C15.3618 15.468 16.4002 14.5675 17.6047 13.9461C18.8092 13.3247 20.1449 13.0003 21.5002 13ZM21.5002 16C22.4272 16 23.3012 16.23 24.0682 16.635C24.1777 17.1404 24.416 17.6089 24.7599 17.9951C25.1039 18.3813 25.5418 18.672 26.0312 18.839L26.3792 18.958C26.9341 20.0226 27.1254 21.2395 26.9239 22.423C26.7224 23.6065 26.1393 24.6915 25.2634 25.5126C24.3876 26.3336 23.2672 26.8456 22.0731 26.9703C20.8791 27.0949 19.6771 26.8255 18.6505 26.2031C17.6239 25.5808 16.8292 24.6396 16.3876 23.5233C15.9459 22.4069 15.8817 21.1768 16.2046 20.0205C16.5276 18.8642 17.22 17.8454 18.1761 17.1195C19.1323 16.3935 20.2997 16.0004 21.5002 16ZM30.0002 12C30.1873 12 30.3706 12.0525 30.5294 12.1515C30.6881 12.2505 30.8159 12.392 30.8982 12.56L30.9462 12.677L31.0762 13.055C31.2134 13.4572 31.4345 13.8256 31.7248 14.1359C32.0151 14.4463 32.3681 14.6914 32.7602 14.855L32.9452 14.925L33.3232 15.054C33.5104 15.1179 33.6745 15.2358 33.7946 15.3929C33.9148 15.55 33.9857 15.7392 33.9983 15.9366C34.0109 16.134 33.9647 16.3307 33.8656 16.5018C33.7664 16.6729 33.6188 16.8108 33.4412 16.898L33.3232 16.946L32.9452 17.076C32.543 17.2132 32.1746 17.4343 31.8643 17.7246C31.554 18.0149 31.3089 18.3678 31.1452 18.76L31.0752 18.945L30.9462 19.323C30.8823 19.5101 30.7642 19.6741 30.6071 19.7942C30.4499 19.9142 30.2607 19.985 30.0633 19.9975C29.8659 20.01 29.6693 19.9638 29.4982 19.8645C29.3271 19.7653 29.1893 19.6176 29.1022 19.44L29.0542 19.323L28.9242 18.945C28.787 18.5428 28.5659 18.1744 28.2756 17.8641C27.9853 17.5537 27.6324 17.3086 27.2402 17.145L27.0552 17.075L26.6772 16.946C26.49 16.8821 26.326 16.7642 26.2058 16.6071C26.0857 16.45 26.0148 16.2608 26.0022 16.0634C25.9895 15.866 26.0357 15.6693 26.1349 15.4982C26.234 15.3271 26.3817 15.1892 26.5592 15.102L26.6772 15.054L27.0552 14.924C27.4574 14.7868 27.8259 14.5657 28.1362 14.2754C28.4465 13.9851 28.6916 13.6322 28.8552 13.24L28.9252 13.055L29.0542 12.677C29.1216 12.4796 29.249 12.3082 29.4187 12.1868C29.5883 12.0654 29.7916 12.0001 30.0002 12Z" fill="url(#paint0_linear_9111_40816)"/>
<defs>
<linearGradient id="paint0_linear_9111_40816" x1="23.5011" y1="12" x2="23.5011" y2="32.1087" gradientUnits="userSpaceOnUse">
<stop stop-color="#42389E"/>
<stop offset="1" stop-color="#0F1026"/>
</linearGradient>
</defs>
</svg>
