<svg width="46" height="46" viewBox="0 0 46 46" fill="none" xmlns="http://www.w3.org/2000/svg">
<rect width="46" height="46" rx="4" fill="#EDECF6"/>
<path d="M31 20V18C31 16.9 30.1 16 29 16H26C26 14.34 24.66 13 23 13C21.34 13 20 14.34 20 16H17C15.9 16 15 16.9 15 18V20C13.34 20 12 21.34 12 23C12 24.66 13.34 26 15 26V30C15 31.1 15.9 32 17 32H29C30.1 32 31 31.1 31 30V26C32.66 26 34 24.66 34 23C34 21.34 32.66 20 31 20ZM18.5 22.5C18.5 21.67 19.17 21 20 21C20.83 21 21.5 21.67 21.5 22.5C21.5 23.33 20.83 24 20 24C19.17 24 18.5 23.33 18.5 22.5ZM26 28H20C19.45 28 19 27.55 19 27C19 26.45 19.45 26 20 26H26C26.55 26 27 26.45 27 27C27 27.55 26.55 28 26 28ZM26 24C25.17 24 24.5 23.33 24.5 22.5C24.5 21.67 25.17 21 26 21C26.83 21 27.5 21.67 27.5 22.5C27.5 23.33 26.83 24 26 24Z" fill="url(#paint0_linear_9111_40805)"/>
<defs>
<linearGradient id="paint0_linear_9111_40805" x1="23" y1="13" x2="23" y2="32" gradientUnits="userSpaceOnUse">
<stop stop-color="#42389E"/>
<stop offset="1" stop-color="#0F1026"/>
</linearGradient>
</defs>
</svg>
